<?xml version="1.0" standalone="no"?>
<!DOCTYPE svg PUBLIC "-//W3C//DTD SVG 20010904//EN"
 "http://www.w3.org/TR/2001/REC-SVG-20010904/DTD/svg10.dtd">
<svg version="1.0" xmlns="http://www.w3.org/2000/svg"
 width="1500.000000pt" height="1500.000000pt" viewBox="0 0 1500.000000 1500.000000"
 preserveAspectRatio="xMidYMid meet">
<metadata>
Created by potrace 1.11, written by Peter Selinger 2001-2013
</metadata>
<g transform="translate(0.000000,1500.000000) scale(0.100000,-0.100000)"
fill="#000000" stroke="none">
<path d="M7170 13159 c-1033 -33 -2073 -261 -2642 -579 -137 -77 -375 -233
-498 -325 -476 -360 -888 -973 -1104 -1643 -43 -135 -117 -424 -145 -572 -67
-358 -82 -813 -36 -1125 68 -461 216 -842 444 -1140 117 -154 324 -340 496
-445 370 -228 903 -348 1413 -318 290 16 646 98 893 203 l79 34 3 -2227 c3
-2770 6 -2455 -27 -2520 -63 -125 -166 -175 -287 -142 -48 13 -111 76 -145
142 l-27 53 -1 1110 c-1 1258 4 1175 -81 1260 -69 70 -117 80 -375 80 -259 0
-305 -10 -375 -80 -85 -85 -80 15 -80 -1455 l0 -1295 28 -99 c43 -154 95 -245
201 -352 107 -106 198 -158 352 -201 l99 -28 475 0 475 0 99 28 c154 43 245
95 352 201 104 105 156 195 201 347 l28 94 3 2544 2 2543 26 -6 c155 -39 479
-49 667 -21 59 9 114 18 122 21 13 5 15 -224 18 -1708 l3 -1713 27 -100 c46
-170 127 -296 256 -401 88 -70 167 -109 291 -142 l105 -27 475 0 475 0 105 27
c124 33 203 72 291 142 131 106 211 232 257 406 l27 105 0 1110 c0 1262 5
1186 -80 1270 -70 70 -116 80 -375 80 -258 0 -306 -10 -375 -80 -84 -84 -80
-26 -81 -1070 l-1 -920 -23 -45 c-33 -67 -67 -108 -113 -138 -35 -22 -53 -27
-107 -27 -98 0 -161 47 -220 164 l-22 44 1 1536 c1 844 4 1537 6 1540 3 2 10
-1 17 -6 25 -20 264 -121 359 -151 356 -114 685 -159 1024 -141 324 17 670 99
920 218 220 105 388 225 546 388 271 281 431 592 533 1033 66 292 87 533 74
860 -13 332 -86 729 -198 1085 -217 685 -640 1311 -1131 1674 -423 313 -628
423 -1047 561 -748 248 -1714 370 -2672 339z"/>
</g>
</svg>
